 <svg  version="1.0" xmlns="http://www.w3.org/2000/svg"  width="656.000000pt" height="293.000000pt" viewBox="0 0 356.000000 93.000000"  preserveAspectRatio="xMidYMid meet">  <g transform="translate(0.000000,93.000000) scale(0.050000,-0.050000)" fill="#908989" stroke="none"> <path d="M0 1052 l0 -807 45 -12 c263 -71 495 134 495 436 0 85 7 111 30 111 24 0 30 -29 30 -138 0 -285 155 -422 478 -422 249 0 304 24 407 174 120 173 135 182 183 117 23 -31 92 -109 154 -174 l112 -117 118 0 c84 0 135 12 178 40 77 51 95 50 240 -10 180 -74 384 -70 586 11 l152 61 121 -55 c162 -73 420 -89 594 -36 99 30 131 32 185 13 150 -55 264 -9 387 156 139 185 125 178 183 100 208 -276 364 -346 537 -240 82 50 108 50 190 0 130 -80 284 -47 414 88 83 87 87 87 155 11 138 -154 299 -183 443 -79 l83 60 0 -102 c0 -56 15 -133 32 -170 l33 -68 277 0 278 0 0 930 0 930 -400 0 c-326 0 -400 -5 -400 -28 0 -52 -52 -77 -88 -41 -18 18 -27 40 -21 51 7 10 -109 18 -283 18 -162 0 -289 -6 -282 -13 20 -20 -24 -87 -57 -87 -16 0 -40 23 -53 50 l-22 50 -564 0 -564 0 -22 -50 c-27 -59 -94 -66 -123 -13 -11 21 -14 43 -7 50 7 7 -296 13 -674 13 -378 0 -681 -6 -674 -12 7 -7 -5 -47 -27 -90 -35 -68 -39 -119 -39 -447 0 -215 -8 -371 -19 -371 -10 0 -22 -16 -27 -35 -9 -33 -9 -33 -12 0 -1 19 -11 35 -22 35 -13 0 -20 138 -20 375 0 311 -6 389 -35 460 l-35 85 -298 0 c-164 0 -293 -6 -286 -13 23 -22 -26 -87 -66 -87 -25 0 -44 18 -52 50 l-12 50 -277 0 c-254 0 -277 -3 -288 -38 -25 -77 -72 -96 -113 -44 -21 25 -33 54 -27 64 7 10 -107 18 -265 17 l-276 0 -36 -78 c-20 -43 -41 -113 -47 -155 -16 -113 -22 -127 -56 -114 -21 8 -31 39 -31 95 0 45 -16 121 -35 168 l-35 85 -225 0 -225 0 0 -808z m302 418 l-4 -260 267 6 268 6 -2 254 -1 254 125 6 125 6 0 -641 0 -641 -127 0 -128 0 11 281 10 280 -268 -5 -268 -6 -4 -250 c-2 -137 -5 -262 -5 -276 -1 -19 -34 -24 -126 -20 l-125 6 0 636 0 636 128 -6 129 -6 -5 -260z m1502 150 c21 -60 51 -148 66 -194 15 -46 39 -105 53 -130 14 -25 28 -61 31 -80 6 -39 79 -253 168 -496 103 -280 106 -263 -54 -256 l-138 6 -58 175 -58 175 -184 0 -184 0 -26 -85 c-15 -47 -44 -128 -66 -180 l-39 -95 -106 0 -106 0 60 165 c33 91 67 192 77 225 10 33 46 137 80 230 35 94 75 206 90 250 15 44 51 143 80 220 29 77 54 152 55 166 1 18 33 24 111 20 l110 -6 38 -110z m696 -332 c0 -563 11 -599 203 -650 52 -14 107 -18 129 -8 21 9 50 18 64 21 122 26 144 123 144 638 l0 451 100 0 100 0 0 -507 c0 -477 -2 -511 -40 -558 -22 -28 -40 -67 -40 -86 0 -20 -6 -30 -14 -22 -7 7 -32 -3 -55 -24 -221 -198 -811 -68 -811 178 0 20 -11 48 -25 63 -19 19 -25 146 -25 491 l0 465 135 0 135 0 0 -452z m1553 427 c24 -3 39 -12 34 -20 -5 -8 0 -15 12 -15 35 0 24 -43 -30 -113 -49 -64 -109 -90 -109 -46 0 11 -11 19 -25 17 -14 -3 -50 6 -81 19 -220 90 -359 -156 -150 -266 25 -13 64 -33 86 -45 22 -12 81 -42 130 -67 180 -91 242 -220 211 -430 -38 -250 -361 -378 -691 -274 -162 52 -162 52 -127 155 39 113 54 122 124 72 188 -133 443 -76 443 101 0 58 -102 177 -152 177 -15 0 -32 0 -38 0 -5 0 -28 18 -50 40 -22 22 -53 40 -70 40 -16 0 -34 0 -40 0 -66 3 -202 200 -207 300 -15 316 201 422 730 355z m707 4 c0 -12 10 -15 23 -7 14 9 18 5 9 -8 -7 -13 10 -88 39 -168 29 -81 63 -182 76 -226 12 -44 30 -86 39 -92 10 -7 16 -18 15 -25 -5 -28 47 -184 71 -213 26 -31 28 -38 28 -91 0 -17 8 -26 18 -20 10 6 14 -5 9 -24 -9 -35 59 -213 75 -197 4 5 9 -15 10 -45 2 -29 10 -73 18 -98 14 -44 11 -45 -113 -45 -127 1 -167 12 -167 50 0 11 -15 61 -34 110 -18 50 -39 115 -45 145 l-12 55 -192 0 c-182 0 -191 -2 -181 -40 6 -22 3 -36 -5 -31 -8 6 -37 -55 -63 -135 l-49 -144 -107 -6 -107 -6 11 56 c5 31 33 122 62 203 29 81 46 156 39 168 -8 12 -4 15 9 7 14 -8 31 19 45 72 12 47 35 113 50 146 14 33 35 92 46 130 11 39 44 133 73 210 29 77 58 163 64 190 6 28 20 61 31 75 24 30 215 34 215 4z m620 -64 c42 -170 106 -408 142 -532 21 -70 38 -164 38 -208 0 -45 6 -75 14 -68 14 14 112 380 146 543 10 44 27 106 39 137 12 31 16 65 10 75 -6 10 -2 18 8 18 11 0 23 25 27 55 6 52 13 55 116 61 l110 6 45 -156 c148 -509 188 -682 172 -741 -7 -27 -3 -45 11 -45 13 0 22 36 23 85 0 47 18 135 39 195 21 61 39 125 39 142 1 18 18 87 40 154 21 67 42 147 47 178 4 31 14 72 21 91 7 19 17 49 22 65 13 40 470 45 472 5 1 -14 1 -295 0 -625 -1 -330 -1 -607 -1 -616 0 -9 -56 -13 -125 -10 l-125 6 -1 605 c-1 332 -8 611 -15 618 -8 8 -14 -3 -14 -23 0 -19 -18 -96 -40 -169 -22 -74 -43 -160 -47 -192 -4 -33 -17 -81 -28 -109 -11 -27 -16 -57 -11 -65 4 -8 -1 -15 -13 -15 -11 0 -21 -21 -21 -47 0 -27 -14 -87 -31 -135 -17 -49 -40 -133 -52 -188 -25 -124 -26 -128 -54 -196 -13 -31 -23 -65 -23 -75 0 -11 -54 -19 -120 -19 -95 0 -120 6 -120 31 0 19 -9 26 -23 17 -14 -9 -18 -5 -9 9 13 21 -9 119 -78 343 -15 50 -43 162 -61 250 -52 254 -72 237 -96 -83 -2 -24 -10 -39 -18 -34 -8 5 -17 -7 -18 -27 -7 -73 -11 -97 -22 -126 -33 -89 -59 -177 -68 -228 -25 -142 -36 -152 -166 -152 -111 0 -121 4 -133 50 -7 27 -19 45 -28 40 -9 -6 -12 8 -6 30 6 22 -4 86 -23 141 -18 56 -41 139 -51 185 -10 46 -60 233 -111 414 -52 182 -98 350 -104 375 -9 43 -4 45 122 45 l131 0 22 -85z m1575 -1327 c58 -38 65 -198 10 -240 -49 -37 -214 -36 -245 2 -13 16 -30 26 -37 22 -22 -14 -10 128 15 174 46 87 160 106 257 42z"/> <path d="M1586 1259 c-24 -93 -50 -189 -57 -214 -13 -43 -8 -45 99 -45 129 0 127 -9 64 194 -27 86 -52 173 -55 195 -4 21 -27 -38 -51 -130z"/> <path d="M4614 1393 c-8 -20 -14 -54 -14 -75 0 -21 -22 -102 -49 -178 l-49 -140 130 0 c121 0 128 2 109 38 -19 37 -68 199 -99 332 -11 50 -16 54 -28 23z"/> </g> </svg> 